# xmcd
#
# Track frame offsets: 
#        150
#        12584
#        23895
#        36050
#        49287
#        58538
#        69633
#        81463
#        91594
#        107302
#
# Disc length: 1596 seconds
#
# Revision: 0
# Processed by: cddbd v1.5.2PL0 Copyright (c) Steve Scherf et al.
# Submitted via: ExactAudioCopy v0.99pb4
#
DISCID=79063a0a
DTITLE=Wanda Jackson - Greatest Hits
DYEAR=1980
DGENRE=Classic Country
TTITLE0=Right Or Wrong
TTITLE1=Fancy Satin Pillows
TTITLE2=If I Cried Every Time You Hurt Me
TTITLE3=A Woman Lives For Love
TTITLE4=I Still Believe In You
TTITLE5=In the Middle of a Heartache
TTITLE6=Tears Will Be a Chaser For Your Wine
TTITLE7=I Can't Stop Now
TTITLE8=One Day at a Time
TTITLE9=A Girl Don't Have to Drink to Have Fun
EXTD=
EXTT0=
EXTT1=
EXTT2=
EXTT3=
EXTT4=
EXTT5=
EXTT6=
EXTT7=
EXTT8=
EXTT9=
PLAYORDER=
